# xmcd
#
# Track frame offsets:
#	150
#	15155
#	29175
#	43856
#	59099
#	73116
#	88799
#	104605
#	117936
#	133911
#	153879
#	165072
#	180597
#	197078
#	208721
#	225933
#	242470
#	252932
#	268682
#
# Disc length: 3784 seconds
#
# Revision: 0
# Processed by: cddbd v1.5.2PL0 Copyright (c) Steve Scherf et al.
# Submitted via: EZCDAudioConverter 2.1.7.1
#
DISCID=060ec613
DTITLE=XTC - Skylarking
DYEAR=1900
DGENRE=
TTITLE0=Summer's Cauldron
TTITLE1=Grass
TTITLE2=The Meeting Place
TTITLE3=That's Really Super Supergirl
TTITLE4=Ballet For A Rainy Day
TTITLE5=1000 Umbrellas
TTITLE6=Season Cycle
TTITLE7=Earn Enough For Us
TTITLE8=Big Day
TTITLE9=Another Satellite
TTITLE10=Mermaid Smiled
TTITLE11=The Man Who Sailed Around His Soul
TTITLE12=Dear God
TTITLE13=Dying
TTITLE14=Sacrificial Bonfire
TTITLE15=Extrovert
TTITLE16=Let's Make A Den
TTITLE17=The Troubles
TTITLE18=Little Lighthouse
EXTD=
EXTT0=
EXTT1=
EXTT2=
EXTT3=
EXTT4=
EXTT5=
EXTT6=
EXTT7=
EXTT8=
EXTT9=
EXTT10=
EXTT11=
EXTT12=
EXTT13=
EXTT14=
EXTT15=
EXTT16=
EXTT17=
EXTT18=
PLAYORDER=
